<svg xmlns="http://www.w3.org/2000/svg" width="1536" height="1536" viewBox="0 0 1536 1536">
<rect width="100%" height="100%" fill="#ffffff"/>
<g fill="#106168" fill-rule="evenodd">
  <path d="M 448,1016 437,1016 428,1018 414,1026 405,1037 402,1036 402,1020 367,1020 366,1021 366,1145 367,1146 403,1146 403,1085 406,1071 410,1064 417,1057 422,1054 429,1052 448,1051 Z"/>
  <path d="M 524,1014 512,1016 493,1024 475,1040 466,1056 463,1065 462,1094 466,1108 471,1118 476,1125 488,1136 503,1144 512,1147 524,1149 538,1149 553,1146 568,1140 584,1127 589,1121 590,1116 562,1104 556,1111 546,1117 539,1119 521,1118 510,1113 501,1104 498,1095 528,1093 597,1093 598,1070 594,1054 589,1044 579,1031 573,1026 563,1020 548,1015 Z M 499,1064 502,1058 514,1047 523,1044 540,1044 548,1047 557,1055 562,1064 562,1068 561,1069 500,1069 Z"/>
  <path d="M 647,1016 634,1022 623,1033 619,1041 617,1050 617,1057 620,1068 624,1075 630,1081 643,1088 682,1098 687,1103 687,1110 682,1116 677,1118 660,1118 649,1113 638,1102 636,1102 614,1119 614,1123 624,1134 640,1143 659,1147 677,1147 696,1143 710,1135 718,1126 721,1120 723,1112 723,1099 718,1086 703,1073 686,1067 660,1061 653,1056 652,1050 659,1043 672,1041 683,1044 694,1054 698,1054 718,1039 718,1035 709,1025 697,1018 688,1015 664,1013 Z"/>
  <path d="M 1189,1012 1175,1012 1165,1015 1158,1019 1147,1030 1144,1029 1144,1015 1143,1014 1109,1014 1108,1015 1108,1139 1109,1140 1144,1140 1145,1139 1145,1074 1147,1067 1152,1058 1161,1050 1174,1046 1189,1046 Z"/>
  <path d="M 849,1036 845,1042 838,1058 836,1068 836,1088 838,1098 842,1109 848,1119 858,1130 865,1135 877,1141 894,1145 906,1145 920,1142 929,1137 937,1130 940,1131 940,1140 941,1141 976,1141 976,1118 977,1117 976,1015 940,1015 940,1026 937,1027 928,1019 920,1015 907,1012 892,1012 891,1013 881,1014 869,1019 860,1025 Z M 897,1045 914,1044 926,1049 934,1057 940,1069 941,1082 940,1083 940,1088 936,1097 928,1106 916,1112 911,1112 910,1113 899,1112 889,1108 879,1099 874,1089 873,1073 876,1063 879,1058 888,1049 Z"/>
  <path d="M 795,976 789,976 788,977 759,977 759,1016 758,1017 736,1017 735,1045 737,1047 759,1047 760,1048 760,1066 759,1067 760,1142 796,1142 796,1048 797,1047 821,1047 822,1046 822,1017 797,1017 796,1016 796,977 Z"/>
  <path d="M 1023,975 1022,976 1022,1014 1021,1015 1000,1015 1000,1045 1021,1045 1023,1047 1023,1140 1059,1140 1059,1046 1060,1045 1086,1045 1086,1015 1060,1015 1059,1014 1059,976 1058,975 Z"/>
  <path d="M 770,776 766,778 765,780 764,909 767,913 772,914 776,912 777,910 778,782 775,777 Z"/>
  <path d="M 799,759 797,761 797,768 820,806 832,828 836,830 840,830 844,826 844,821 837,808 819,779 810,762 806,758 Z"/>
  <path d="M 628,655 612,655 611,656 601,656 600,657 577,658 575,659 570,668 565,682 563,692 564,712 569,729 573,737 579,746 586,753 614,751 615,750 639,747 639,744 631,739 620,728 616,722 610,708 609,692 611,682 616,671 628,657 Z"/>
  <path d="M 946,609 936,610 935,611 927,611 926,612 918,612 917,613 909,613 908,614 900,614 893,616 893,619 900,623 912,635 918,645 922,658 922,676 920,683 915,693 904,706 904,708 920,708 921,707 930,707 931,706 956,705 959,702 963,694 969,674 968,649 965,638 960,627 Z"/>
  <path d="M 706,649 697,636 674,616 633,602 408,623 371,641 342,675 331,714 334,747 347,776 368,799 394,814 413,819 448,819 643,800 676,785 693,769 701,755 652,752 621,760 424,776 398,765 382,746 377,731 381,698 400,675 422,664 620,644 637,647 652,655 675,683 705,654 Z"/>
  <path d="M 1202,616 1190,589 1173,568 1143,549 1121,543 1066,545 885,564 851,582 830,607 855,606 881,611 916,602 1110,586 1135,596 1152,615 1159,636 1156,663 1147,679 1135,690 1104,701 908,718 888,713 874,704 858,680 825,713 859,748 900,761 1131,740 1167,722 1190,697 1205,655 Z"/>
  <path d="M 705,522 702,526 702,530 728,573 731,580 739,593 743,597 749,596 752,593 752,588 719,531 711,521 Z"/>
  <path d="M 801,501 795,501 792,504 790,510 781,559 779,563 776,578 777,583 781,586 786,586 790,581 790,576 792,571 802,518 804,513 804,504 Z"/>
  <path d="M 767,149 192,469 191,1151 769,1477 1346,1151 1346,472 Z M 767,223 1279,508 1279,1111 770,1401 258,1112 258,508 Z"/>
</g>
<g fill="#ec7555" fill-rule="evenodd">
  <path d="M 774,694 759,691 751,691 743,697 733,701 726,701 722,699 714,691 707,680 708,675 715,666 721,655 721,652 718,652 689,687 689,698 690,699 689,704 681,704 671,699 662,689 658,678 653,669 649,665 642,661 640,661 632,669 628,675 623,687 622,700 624,709 631,722 635,727 649,737 660,742 671,745 700,745 701,744 709,744 716,742 723,742 724,741 749,738 751,736 763,710 773,698 Z"/>
  <path d="M 759,668 759,670 762,671 781,673 790,668 803,663 810,664 818,672 825,682 825,687 815,701 812,707 812,710 814,710 842,679 843,670 840,662 841,659 851,659 860,664 869,674 874,688 879,696 889,703 892,703 903,690 909,676 909,660 905,650 899,641 888,630 882,626 870,620 857,617 832,617 831,618 823,618 822,619 787,623 779,635 773,648 Z"/>
</g>
</svg>
